<svg xmlns="http://www.w3.org/2000/svg"  preserveAspectRatio="xMinYMin meet" id="mySVG" viewBox="0 0 915 304" class="svg-content-responsive">
<line class="link" x1="447.3090322804601" y1="128.76654722366254" x2="473.32109853219805" y2="150.49621406948157" style="stroke-width: 3px;">
</line>
<line class="link" x1="476.6523735091325" y1="198.4002504146952" x2="453.6689296377694" y2="214.72161139140331" style="stroke-width: 3px;">
</line>
<line class="link" x1="476.6523735091325" y1="198.4002504146952" x2="493.42875576201277" y2="218.929039399202" style="stroke-width: 7.5px;">
</line>
<line class="link" x1="447.3090322804601" y1="128.76654722366254" x2="411.5393981835071" y2="143.4046937765514" style="stroke-width: 3px;">
</line>
<line class="link" x1="411.5393981835071" y1="143.4046937765514" x2="391.455854648875" y2="162.05480748402812" style="stroke-width: 3px;">
</line>
<line class="link" x1="411.5393981835071" y1="143.4046937765514" x2="390.1966968825605" y2="128.10293976514143" style="stroke-width: 7.5px;">
</line>
<line class="link" x1="453.9375163404338" y1="90.62588604231402" x2="447.3090322804601" y2="128.76654722366254" style="stroke-width: 3px;">
</line>
<line class="link" x1="473.32109853219805" y1="150.49621406948157" x2="492.0438380956435" y2="173.26760225025234" style="stroke-width: 3px;">
</line>
<line class="link" x1="492.0438380956435" y1="173.26760225025234" x2="476.6523735091325" y2="198.4002504146952" style="stroke-width: 3px;">
</line>
<line class="link" x1="453.9375163404338" y1="90.62588604231402" x2="438.6407549260546" y2="71.03747381642519" style="stroke-width: 3px;">
</line>
<line class="link" x1="453.9375163404338" y1="90.62588604231402" x2="471.9034836182519" y2="72.1606716482938" style="stroke-width: 3px;">
</line>
<line class="link" x1="447.3090322804601" y1="128.76654722366254" x2="433.07176647908096" y2="116.65247689349208" style="stroke-width: 3px;">
</line>
<line class="link" x1="473.32109853219805" y1="150.49621406948157" x2="482.00610847037376" y2="133.69970063961378" style="stroke-width: 3px;">
</line>
<line class="link" x1="473.32109853219805" y1="150.49621406948157" x2="506.4026957582384" y2="124.64867456980515" style="stroke-width: 3px;">
</line>
<line class="link" x1="492.0438380956435" y1="173.26760225025234" x2="526.0886831769927" y2="161.3330907263729" style="stroke-width: 3px;">
</line>
<line class="link" x1="492.0438380956435" y1="173.26760225025234" x2="515.8108102408349" y2="185.09794765761734" style="stroke-width: 3px;">
</line>
<line class="link" x1="453.6689296377694" y1="214.72161139140331" x2="453.69668131859305" y2="237.77021393201358" style="stroke-width: 3px;">
</line>
<line class="link" x1="453.6689296377694" y1="214.72161139140331" x2="429.23655003328196" y2="219.31516010961172" style="stroke-width: 3px;">
</line>
<line class="link" x1="391.455854648875" y1="162.05480748402812" x2="375.33456628329117" y2="176.5630302620793" style="stroke-width: 3px;">
</line>
<line class="separator" x1="476.6523735091325" y1="198.4002504146952" x2="493.42875576201277" y2="218.929039399202" style="stroke-width: 2px; stroke: rgb(255, 255, 255);">
</line>
<line class="separator" x1="411.5393981835071" y1="143.4046937765514" x2="390.1966968825605" y2="128.10293976514143" style="stroke-width: 2px; stroke: rgb(255, 255, 255);">
</line>
<circle class="atom-N" r="8.720550441342564" cx="453.9375163404338" cy="90.62588604231402">
</circle>
<circle class="atom-C" r="8.25881347410147" cx="447.3090322804601" cy="128.76654722366254">
</circle>
<circle class="atom-C" r="8.25881347410147" cx="473.32109853219805" cy="150.49621406948157">
</circle>
<circle class="atom-C" r="8.25881347410147" cx="492.0438380956435" cy="173.26760225025234">
</circle>
<circle class="atom-C" r="8.25881347410147" cx="476.6523735091325" cy="198.4002504146952">
</circle>
<circle class="atom-N" r="8.720550441342564" cx="453.6689296377694" cy="214.72161139140331">
</circle>
<circle class="atom-O" r="9.15903925092583" cx="493.42875576201277" cy="218.929039399202">
</circle>
<circle class="atom-C" r="8.25881347410147" cx="411.5393981835071" cy="143.4046937765514">
</circle>
<circle class="atom-O" r="9.15903925092583" cx="391.455854648875" cy="162.05480748402812">
</circle>
<circle class="atom-O" r="9.15903925092583" cx="390.1966968825605" cy="128.10293976514143">
</circle>
<circle class="atom-H" r="5.385907537267976" cx="438.6407549260546" cy="71.03747381642519">
</circle>
<circle class="atom-H" r="5.385907537267976" cx="471.9034836182519" cy="72.1606716482938">
</circle>
<circle class="atom-H" r="5.385907537267976" cx="433.07176647908096" cy="116.65247689349208">
</circle>
<circle class="atom-H" r="5.385907537267976" cx="482.00610847037376" cy="133.69970063961378">
</circle>
<circle class="atom-H" r="5.385907537267976" cx="506.4026957582384" cy="124.64867456980515">
</circle>
<circle class="atom-H" r="5.385907537267976" cx="526.0886831769927" cy="161.3330907263729">
</circle>
<circle class="atom-H" r="5.385907537267976" cx="515.8108102408349" cy="185.09794765761734">
</circle>
<circle class="atom-H" r="5.385907537267976" cx="453.69668131859305" cy="237.77021393201358">
</circle>
<circle class="atom-H" r="5.385907537267976" cx="429.23655003328196" cy="219.31516010961172">
</circle>
<circle class="atom-H" r="5.385907537267976" cx="375.33456628329117" cy="176.5630302620793">
</circle>
</svg>